<svg width="52" height="80" viewBox="0 0 52 80" fill="none" xmlns="http://www.w3.org/2000/svg">
<path d="M20.8166 60.9167C7.46411 60.9167 0 45.75 0 30.4167C0 13.5833 10.0351 0 22.4753 0C32.0128 0 36.4912 6.5 38.4817 11.5833C38.4817 11.5833 24.134 20.25 24.051 20.25C23.8022 20.25 23.8022 20.0833 23.9681 19.9167C33.1738 14.1667 32.6762 1.5 22.5582 1.5C17.2504 1.5 8.95694 7 8.29346 23.75C7.46412 41.5 18.8262 61.25 28.6124 57.5V50.0833C28.6124 36 27.5343 35.1667 23.6364 35.1667C23.3876 35.1667 23.3876 34.8333 23.6364 34.8333C23.7193 34.8333 40.7209 34.8333 40.8038 34.8333C40.9697 34.8333 40.9697 35.1667 40.8038 35.1667C36.9059 35.1667 37.1547 42.6667 37.1547 49.25C37.1547 49.25 37.1547 59.25 37.1547 59.3333C37.1547 59.5 36.823 59.5 36.823 59.3333C36.823 58.5833 35.9107 58.25 33.008 58.25C27.866 58.25 25.2121 60.9167 20.8166 60.9167Z" fill="white"/>
<path d="M29.5247 80C41.9649 80 52 66.4167 52 49.5833C52 32.75 41.9649 19.1667 29.5247 19.1667C19.9872 19.1667 15.5088 25.6667 13.5183 30.75C13.5183 30.75 27.866 39.3333 27.949 39.3333C28.1978 39.3333 28.1978 39.1667 28.0319 39.0833C18.8262 33.3333 19.3238 20.6667 29.4418 20.6667C34.7496 20.6667 43.0431 26.0833 43.7065 42.8333C44.5359 60.6667 35.0813 73.9167 24.6316 73.9167C19.5726 73.9167 16.0064 70.0833 13.7671 66L12.5231 66.75C16.5869 74.3333 22.8899 80 29.5247 80Z" fill="white"/>
</svg>
