<svg width="142" height="217" viewBox="0 0 142 217" fill="none" xmlns="http://www.w3.org/2000/svg">
<path d="M56.8453 165.236C20.3828 165.236 0 124.097 0 82.5052C0 36.8448 27.4035 0 61.3748 0C87.4195 0 99.6491 17.6312 105.085 31.4198C105.085 31.4198 65.9043 54.9281 65.6778 54.9281C64.9984 54.9281 64.9984 54.476 65.4514 54.024C90.5901 38.4271 89.2313 4.06875 61.6013 4.06875C47.1069 4.06875 24.4593 18.9875 22.6475 64.4219C20.3828 112.569 51.4099 166.141 78.134 155.969V135.851C78.134 97.65 75.1898 95.3896 64.5455 95.3896C63.866 95.3896 63.866 94.4854 64.5455 94.4854C64.7719 94.4854 111.199 94.4854 111.426 94.4854C111.879 94.4854 111.879 95.3896 111.426 95.3896C100.782 95.3896 101.461 115.733 101.461 133.591C101.461 133.591 101.461 160.716 101.461 160.942C101.461 161.394 100.555 161.394 100.555 160.942C100.555 158.907 98.0638 158.003 90.1372 158.003C76.0957 158.003 68.8485 165.236 56.8453 165.236Z" fill="black"/>
<path d="M80.6252 217C114.596 217 142 180.155 142 134.495C142 88.8344 114.596 51.9896 80.6252 51.9896C54.5805 51.9896 42.3509 69.6208 36.9155 83.4094C36.9155 83.4094 76.0957 106.692 76.3222 106.692C77.0016 106.692 77.0016 106.24 76.5486 106.014C51.4099 90.4167 52.7687 56.0583 80.3987 56.0583C94.8932 56.0583 117.541 70.751 119.352 116.185C121.617 164.558 95.799 200.499 67.2632 200.499C53.4482 200.499 43.7097 190.101 37.5949 179.025L34.1978 181.059C45.2951 201.629 62.5072 217 80.6252 217Z" fill="black"/>
</svg>
